<mxfile host="app.diagrams.net" modified="2022-11-03T07:27:30.114Z" agent="5.0 (Macintosh; Intel Mac OS X 10_15_7) AppleWebKit/537.36 (KHTML, like Gecko) Chrome/107.0.0.0 Safari/537.36" etag="X-JoLgl1pOFkGpXDC1AU" version="20.5.1" type="github">
  <diagram id="hPmmxOSCHt17IidU_Gkb" name="Page-1">
    <mxGraphModel dx="1008" dy="551" grid="1" gridSize="10" guides="1" tooltips="1" connect="1" arrows="1" fold="1" page="1" pageScale="1" pageWidth="827" pageHeight="1169" math="0" shadow="0">
      <root>
        <mxCell id="0" />
        <mxCell id="1" parent="0" />
        <mxCell id="AysTFdmpm7esB-RW8hMy-27" value="" style="group" vertex="1" connectable="0" parent="1">
          <mxGeometry x="20" y="20" width="720" height="360" as="geometry" />
        </mxCell>
        <mxCell id="AysTFdmpm7esB-RW8hMy-1" value="" style="shape=umlLifeline;participant=umlActor;perimeter=lifelinePerimeter;whiteSpace=wrap;html=1;container=1;collapsible=0;recursiveResize=0;verticalAlign=top;spacingTop=36;outlineConnect=0;" vertex="1" parent="AysTFdmpm7esB-RW8hMy-27">
          <mxGeometry width="20" height="360" as="geometry" />
        </mxCell>
        <mxCell id="AysTFdmpm7esB-RW8hMy-23" value="" style="html=1;points=[];perimeter=orthogonalPerimeter;fontSize=8;" vertex="1" parent="AysTFdmpm7esB-RW8hMy-1">
          <mxGeometry x="5" y="270" width="10" height="50" as="geometry" />
        </mxCell>
        <mxCell id="AysTFdmpm7esB-RW8hMy-2" value="&lt;p&gt;&lt;/p&gt;&lt;div style=&quot;&quot;&gt;&lt;span style=&quot;font-size: 8px; background-color: initial;&quot;&gt;CompanyProfile&lt;/span&gt;&lt;/div&gt;&lt;font style=&quot;font-size: 8px;&quot;&gt;&lt;div style=&quot;&quot;&gt;&lt;span style=&quot;background-color: initial;&quot;&gt;PostLoginTask&lt;/span&gt;&lt;/div&gt;&lt;/font&gt;&lt;p&gt;&lt;/p&gt;" style="shape=umlLifeline;perimeter=lifelinePerimeter;whiteSpace=wrap;html=1;container=1;collapsible=0;recursiveResize=0;outlineConnect=0;size=30;" vertex="1" parent="AysTFdmpm7esB-RW8hMy-27">
          <mxGeometry x="70" width="90" height="360" as="geometry" />
        </mxCell>
        <mxCell id="AysTFdmpm7esB-RW8hMy-12" value="" style="html=1;points=[];perimeter=orthogonalPerimeter;fontSize=8;" vertex="1" parent="AysTFdmpm7esB-RW8hMy-2">
          <mxGeometry x="40" y="70" width="10" height="50" as="geometry" />
        </mxCell>
        <mxCell id="AysTFdmpm7esB-RW8hMy-14" value="Send kafka message" style="html=1;verticalAlign=bottom;endArrow=open;rounded=0;fontSize=8;endFill=0;entryX=0.127;entryY=0.012;entryDx=0;entryDy=0;entryPerimeter=0;" edge="1" parent="AysTFdmpm7esB-RW8hMy-2" target="AysTFdmpm7esB-RW8hMy-18">
          <mxGeometry width="80" relative="1" as="geometry">
            <mxPoint x="50" y="111" as="sourcePoint" />
            <mxPoint x="130" y="110" as="targetPoint" />
          </mxGeometry>
        </mxCell>
        <mxCell id="AysTFdmpm7esB-RW8hMy-7" value="&lt;div style=&quot;&quot;&gt;&lt;span style=&quot;font-size: 8px; background-color: initial;&quot;&gt;OpenAPI&lt;/span&gt;&lt;/div&gt;&lt;font style=&quot;font-size: 8px;&quot;&gt;&lt;div style=&quot;&quot;&gt;&lt;span style=&quot;background-color: initial;&quot;&gt;Service&lt;/span&gt;&lt;/div&gt;&lt;/font&gt;" style="shape=umlLifeline;perimeter=lifelinePerimeter;whiteSpace=wrap;html=1;container=1;collapsible=0;recursiveResize=0;outlineConnect=0;size=30;align=center;" vertex="1" parent="AysTFdmpm7esB-RW8hMy-27">
          <mxGeometry x="500" width="90" height="360" as="geometry" />
        </mxCell>
        <mxCell id="AysTFdmpm7esB-RW8hMy-8" value="&lt;div style=&quot;&quot;&gt;&lt;span style=&quot;font-size: 8px; background-color: initial;&quot;&gt;Externaldata&lt;/span&gt;&lt;/div&gt;&lt;font style=&quot;font-size: 8px;&quot;&gt;&lt;div style=&quot;&quot;&gt;&lt;span style=&quot;background-color: initial;&quot;&gt;Service&lt;/span&gt;&lt;/div&gt;&lt;/font&gt;" style="shape=umlLifeline;perimeter=lifelinePerimeter;whiteSpace=wrap;html=1;container=1;collapsible=0;recursiveResize=0;outlineConnect=0;size=30;align=center;" vertex="1" parent="AysTFdmpm7esB-RW8hMy-27">
          <mxGeometry x="210" width="90" height="360" as="geometry" />
        </mxCell>
        <mxCell id="AysTFdmpm7esB-RW8hMy-18" value="" style="html=1;points=[];perimeter=orthogonalPerimeter;fontSize=8;" vertex="1" parent="AysTFdmpm7esB-RW8hMy-8">
          <mxGeometry x="40" y="110" width="10" height="100" as="geometry" />
        </mxCell>
        <mxCell id="AysTFdmpm7esB-RW8hMy-19" value="Update status and check date in profile_validation" style="html=1;verticalAlign=bottom;endArrow=block;rounded=0;fontSize=8;" edge="1" parent="AysTFdmpm7esB-RW8hMy-8" target="AysTFdmpm7esB-RW8hMy-7">
          <mxGeometry width="80" relative="1" as="geometry">
            <mxPoint x="50" y="180" as="sourcePoint" />
            <mxPoint x="130" y="180" as="targetPoint" />
          </mxGeometry>
        </mxCell>
        <mxCell id="AysTFdmpm7esB-RW8hMy-9" value="&lt;div style=&quot;&quot;&gt;&lt;span style=&quot;font-size: 8px; background-color: initial;&quot;&gt;Inapp Notification&lt;/span&gt;&lt;/div&gt;&lt;font style=&quot;font-size: 8px;&quot;&gt;&lt;div style=&quot;&quot;&gt;&lt;span style=&quot;background-color: initial;&quot;&gt;Service&lt;/span&gt;&lt;/div&gt;&lt;/font&gt;" style="shape=umlLifeline;perimeter=lifelinePerimeter;whiteSpace=wrap;html=1;container=1;collapsible=0;recursiveResize=0;outlineConnect=0;size=30;align=center;" vertex="1" parent="AysTFdmpm7esB-RW8hMy-27">
          <mxGeometry x="630" width="90" height="360" as="geometry" />
        </mxCell>
        <mxCell id="AysTFdmpm7esB-RW8hMy-24" value="" style="html=1;points=[];perimeter=orthogonalPerimeter;fontSize=8;" vertex="1" parent="AysTFdmpm7esB-RW8hMy-9">
          <mxGeometry x="40" y="270" width="10" height="50" as="geometry" />
        </mxCell>
        <mxCell id="AysTFdmpm7esB-RW8hMy-10" value="&lt;span style=&quot;font-size: 8px;&quot;&gt;D&amp;amp;B&lt;/span&gt;" style="shape=umlLifeline;perimeter=lifelinePerimeter;whiteSpace=wrap;html=1;container=1;collapsible=0;recursiveResize=0;outlineConnect=0;size=30;" vertex="1" parent="AysTFdmpm7esB-RW8hMy-27">
          <mxGeometry x="360" width="90" height="360" as="geometry" />
        </mxCell>
        <mxCell id="AysTFdmpm7esB-RW8hMy-15" value="" style="html=1;points=[];perimeter=orthogonalPerimeter;fontSize=8;" vertex="1" parent="AysTFdmpm7esB-RW8hMy-10">
          <mxGeometry x="40" y="120" width="10" height="30" as="geometry" />
        </mxCell>
        <mxCell id="AysTFdmpm7esB-RW8hMy-13" value="Trigger post login task" style="html=1;verticalAlign=bottom;startArrow=oval;endArrow=block;startSize=8;rounded=0;fontSize=8;" edge="1" target="AysTFdmpm7esB-RW8hMy-12" parent="AysTFdmpm7esB-RW8hMy-27" source="AysTFdmpm7esB-RW8hMy-1">
          <mxGeometry x="0.0908" relative="1" as="geometry">
            <mxPoint x="60" y="70" as="sourcePoint" />
            <Array as="points">
              <mxPoint x="70" y="70" />
            </Array>
            <mxPoint as="offset" />
          </mxGeometry>
        </mxCell>
        <mxCell id="AysTFdmpm7esB-RW8hMy-16" value="Fetch dnb info by duns number" style="html=1;verticalAlign=bottom;endArrow=block;entryX=0;entryY=0;rounded=0;fontSize=8;exitX=0.956;exitY=0.097;exitDx=0;exitDy=0;exitPerimeter=0;" edge="1" target="AysTFdmpm7esB-RW8hMy-15" parent="AysTFdmpm7esB-RW8hMy-27" source="AysTFdmpm7esB-RW8hMy-18">
          <mxGeometry relative="1" as="geometry">
            <mxPoint x="330" y="120" as="sourcePoint" />
          </mxGeometry>
        </mxCell>
        <mxCell id="AysTFdmpm7esB-RW8hMy-17" value="return" style="html=1;verticalAlign=bottom;endArrow=open;dashed=1;endSize=8;exitX=0;exitY=0.95;rounded=0;fontSize=8;entryX=1.127;entryY=0.39;entryDx=0;entryDy=0;entryPerimeter=0;" edge="1" source="AysTFdmpm7esB-RW8hMy-15" parent="AysTFdmpm7esB-RW8hMy-27" target="AysTFdmpm7esB-RW8hMy-18">
          <mxGeometry relative="1" as="geometry">
            <mxPoint x="270" y="149" as="targetPoint" />
          </mxGeometry>
        </mxCell>
        <mxCell id="AysTFdmpm7esB-RW8hMy-20" value="return" style="html=1;verticalAlign=bottom;endArrow=open;dashed=1;endSize=8;rounded=0;fontSize=8;exitX=1.102;exitY=0.892;exitDx=0;exitDy=0;exitPerimeter=0;" edge="1" parent="AysTFdmpm7esB-RW8hMy-27" source="AysTFdmpm7esB-RW8hMy-18" target="AysTFdmpm7esB-RW8hMy-9">
          <mxGeometry relative="1" as="geometry">
            <mxPoint x="460" y="240" as="sourcePoint" />
            <mxPoint x="380" y="240" as="targetPoint" />
          </mxGeometry>
        </mxCell>
        <mxCell id="AysTFdmpm7esB-RW8hMy-26" value="return" style="html=1;verticalAlign=bottom;endArrow=open;dashed=1;endSize=8;exitX=0;exitY=0.95;rounded=0;fontSize=8;entryX=1.041;entryY=0.946;entryDx=0;entryDy=0;entryPerimeter=0;" edge="1" source="AysTFdmpm7esB-RW8hMy-24" parent="AysTFdmpm7esB-RW8hMy-27" target="AysTFdmpm7esB-RW8hMy-23">
          <mxGeometry relative="1" as="geometry">
            <mxPoint x="590" y="346" as="targetPoint" />
          </mxGeometry>
        </mxCell>
        <mxCell id="AysTFdmpm7esB-RW8hMy-25" value="Get notification list" style="html=1;verticalAlign=bottom;endArrow=block;entryX=0;entryY=0;rounded=0;fontSize=8;exitX=0.993;exitY=0.009;exitDx=0;exitDy=0;exitPerimeter=0;" edge="1" target="AysTFdmpm7esB-RW8hMy-24" parent="AysTFdmpm7esB-RW8hMy-27" source="AysTFdmpm7esB-RW8hMy-23">
          <mxGeometry relative="1" as="geometry">
            <mxPoint x="590" y="270" as="sourcePoint" />
          </mxGeometry>
        </mxCell>
      </root>
    </mxGraphModel>
  </diagram>
</mxfile>
